<?xml version="1.0" encoding="UTF-8" standalone="no"?>
<svg
   xmlns:dc="http://purl.org/dc/elements/1.1/"
   xmlns:cc="http://creativecommons.org/ns#"
   xmlns:rdf="http://www.w3.org/1999/02/22-rdf-syntax-ns#"
   xmlns:svg="http://www.w3.org/2000/svg"
   xmlns="http://www.w3.org/2000/svg"
   xmlns:sodipodi="http://sodipodi.sourceforge.net/DTD/sodipodi-0.dtd"
   xmlns:inkscape="http://www.inkscape.org/namespaces/inkscape"
   inkscape:version="1.0 (4035a4fb49, 2020-05-01)"
   sodipodi:docname="bar-chic.svg"
   viewBox="0 0 341 65"
   height="65"
   width="341"
   id="svg10"
   version="1.1">
  <metadata
     id="metadata16">
    <rdf:RDF>
      <cc:Work
         rdf:about="">
        <dc:format>image/svg+xml</dc:format>
        <dc:type
           rdf:resource="http://purl.org/dc/dcmitype/StillImage" />
        <dc:title></dc:title>
      </cc:Work>
    </rdf:RDF>
  </metadata>
  <defs
     id="defs14">
    <inkscape:path-effect
       end_linecap_type="zerowidth"
       scale_width="1"
       miter_limit="4"
       linejoin_type="extrp_arc"
       start_linecap_type="zerowidth"
       interpolator_beta="0.2"
       interpolator_type="CubicBezierJohan"
       sort_points="true"
       offset_points="0.0030776585,0.97781068"
       lpeversion="1"
       is_visible="true"
       id="path-effect24"
       effect="powerstroke" />
  </defs>
  <sodipodi:namedview
     inkscape:current-layer="g18"
     inkscape:window-maximized="0"
     inkscape:window-y="0"
     inkscape:window-x="0"
     inkscape:cy="32.5"
     inkscape:cx="118.2673"
     inkscape:zoom="3.0489043"
     showgrid="false"
     id="namedview12"
     inkscape:window-height="655"
     inkscape:window-width="1246"
     inkscape:pageshadow="2"
     inkscape:pageopacity="0"
     guidetolerance="10"
     gridtolerance="10"
     objecttolerance="10"
     borderopacity="1"
     bordercolor="#666666"
     pagecolor="#ffffff" />
  <g
     id="g18"
     inkscape:label="Image"
     inkscape:groupmode="layer">
    <path
       sodipodi:nodetypes="ccccc"
       inkscape:original-d="m 48.161062,21.975107 c 72.251458,7.992837 141.910918,7.812816 212.374288,10.167587 -70.68798,1.317273 -141.30498,1.963272 -212.617002,9.183627 -9.954129,-7.366096 -21.32507,-8.03115 -32.523608,-9.511614 11.576489,-1.865008 24.213317,-1.43742 32.766322,-9.8396 z"
       inkscape:path-effect="#path-effect24"
       id="path22"
       d="m 48.053547,22.946989 c 0.133549,0.01477 0.534148,0.05896 0.667667,0.07364 v 0 c 25.888168,2.846524 54.804306,5.041265 91.879156,6.578484 24.14209,1.000993 50.34053,1.589307 78.17907,2.310923 C 195.46511,32.3773 120.71779,32.996415 48.193297,40.315734 45.727002,38.52871 43.183872,37.140387 40.59411,36.040721 l -8e-6,-4e-6 c -2.723812,-1.156586 -5.490885,-1.990163 -8.250063,-2.62986 v 0 c -3.031234,-0.702772 -6.218436,-1.198625 -9.325038,-1.614491 0.436652,-0.05151 0.868228,-0.10253 1.293014,-0.153491 v 0 c 3.144369,-0.377228 6.005643,-0.760186 8.798169,-1.339073 v 0 c 3.132453,-0.649353 5.874943,-1.488135 8.356318,-2.619104 v 0 c 3.051948,-1.391026 5.441604,-3.108035 7.379799,-5.012052 z m -0.577724,-1.669421 c -1.777785,1.746435 -3.978716,3.332443 -6.820387,4.627629 v 0 c -2.317636,1.056339 -4.914417,1.856038 -7.94221,2.483695 v 0 c -2.706458,0.561045 -5.498594,0.936113 -8.634156,1.312285 v 0 c -2.758195,0.330899 -5.899264,0.674429 -8.839852,1.148166 -1.900829,0.30623 -3.79081,0.67637 -5.6667303,1.109793 l 5.6940993,0.824947 v 0 c 5.256172,0.694874 11.187963,1.268826 16.635769,2.531865 h 0 c 2.67604,0.620422 5.330828,1.422276 7.927402,2.524834 l 7e-6,3e-6 c 2.568925,1.090818 5.079512,2.475236 7.50693,4.271535 0.100765,0.07457 0.20114,0.14966 0.30112,0.225276 l 0.379033,-0.03844 -0.376197,0.03809 0.376197,-0.03809 C 120.55855,34.954297 195.354,34.335331 260.55357,33.120335 c 11.0293,-0.205531 22.05829,-0.427365 33.08693,-0.665501 l -33.07249,-1.289405 v 0 C 216.94067,29.707474 176.5294,29.131518 140.68138,27.645167 103.6431,26.109464 74.771898,23.917611 48.934955,21.07672 v 0 c -0.133261,-0.01465 -0.533088,-0.05875 -0.666378,-0.0735 z"
       style="fill:#000000;fill-rule:nonzero;stroke:none;stroke-width:0.860238px;stroke-linecap:butt;stroke-linejoin:miter;stroke-opacity:1" />
  </g>
</svg>
