<?xml version="1.0" encoding="UTF-8" standalone="no"?> <!-- Created with Vectornator for iOS (http://vectornator.io/) --><!DOCTYPE svg PUBLIC "-//W3C//DTD SVG 1.1//EN" "http://www.w3.org/Graphics/SVG/1.1/DTD/svg11.dtd">
<svg height="100%" style="fill-rule:evenodd;clip-rule:evenodd;stroke-linecap:round;stroke-linejoin:round;" xmlns:xlink="http://www.w3.org/1999/xlink" xmlns="http://www.w3.org/2000/svg" xml:space="preserve" width="100%" xmlns:vectornator="http://vectornator.io" version="1.1" viewBox="0 0 533.333 66.6667">
<metadata>
<vectornator:setting key="DynamicGuides" value="1"/>
<vectornator:setting key="Units" value="Points"/>
<vectornator:setting key="RulersVisible" value="1"/>
<vectornator:setting key="SnapToGuides" value="1"/>
<vectornator:setting key="GridSpacing" value="36"/>
</metadata>
<defs>
<linearGradient y1="33.7186" id="LinearGradient" x1="0.372183" y2="32.23" x2="757.669" gradientUnits="userSpaceOnUse" gradientTransform="matrix(1 0 0 1 0 0)">
<stop stop-color="#43a047" offset="0"/>
<stop stop-opacity="0" stop-color="#43a047" offset="1"/>
</linearGradient>
</defs>
<g id="g10" vectornator:layerName="g10">
<path d="M200.633+41.2568C200.633+40.9987+173.086+38.7898+149.794+38.4951C124.373+38.1735+98.2728+39.7819+90.2817+39.919L6.16189+40.4785L2.13698+36.3859C-0.477331+33.7277+0.36924+30.358+1.16807+28.2063L2.34542+25.0351L34.6957+26.856C44.7695+26.8527+62.4285+27.7839+84.0468+27.4827C101.166+27.2442+121.294+25.7205+138.412+25.9476C187.789+26.6025+219.035+29.1325+282.257+29.0273C312.263+28.9773+352.019+26.5599+399.604+26.3617C484.985+26.006+515.961+26.6485+528.149+29.0276C537.011+30.7575+531.821+32.5575+520.909+31.5385C515.4+31.024+513.382+31.167+515.158+31.946C516.662+32.6059+521.087+33.188+524.991+33.2396C528.896+33.2911+532.445+33.8933+532.879+34.5778C533.607+35.7268+509.17+35.682+452.274+36.5345C440.073+36.7174+427.275+37.8152+411.911+37.9989C380.698+38.3721+340.352+39.575+322.253+40.672C288.435+42.7218+232.081+42.9928+200.633+41.2568Z" opacity="1" fill="url(#LinearGradient)"/>
</g>
</svg>
