<?xml version="1.0" standalone="no"?>
<!DOCTYPE svg PUBLIC "-//W3C//DTD SVG 20010904//EN"
 "http://www.w3.org/TR/2001/REC-SVG-20010904/DTD/svg10.dtd">
<svg version="1.0" xmlns="http://www.w3.org/2000/svg"
 width="183.000000pt" height="10.000000pt" viewBox="0 0 183.000000 10.000000"
 preserveAspectRatio="xMidYMid meet">

<g transform="translate(0.000000,10.000000) scale(0.100000,-0.100000)"
fill="#000000" stroke="none">
<path d="M195 85 c-27 -8 -78 -18 -112 -21 -35 -4 -63 -10 -63 -13 0 -12 217
-45 295 -45 44 0 199 6 345 12 146 7 438 15 650 18 212 4 394 10 404 14 11 4
-168 10 -398 14 -374 6 -700 16 -976 30 -66 4 -110 1 -145 -9z"/>
</g>
</svg>
