<?xml version="1.0" encoding="UTF-8" standalone="no"?> <!-- Created with Vectornator for iOS (http://vectornator.io/) --><!DOCTYPE svg PUBLIC "-//W3C//DTD SVG 1.1//EN" "http://www.w3.org/Graphics/SVG/1.1/DTD/svg11.dtd">
<svg height="100%" style="fill-rule:evenodd;clip-rule:evenodd;stroke-linecap:round;stroke-linejoin:round;" xmlns:xlink="http://www.w3.org/1999/xlink" xmlns="http://www.w3.org/2000/svg" xml:space="preserve" width="100%" xmlns:vectornator="http://vectornator.io" version="1.1" viewBox="0 0 533.333 66.6667">
<metadata>
<vectornator:setting key="DynamicGuides" value="1"/>
<vectornator:setting key="Units" value="Points"/>
<vectornator:setting key="RulersVisible" value="1"/>
<vectornator:setting key="SnapToGuides" value="1"/>
<vectornator:setting key="GridSpacing" value="36"/>
</metadata>
<defs>
<linearGradient y1="33.379" id="LinearGradient" x1="0.370763" y2="32.5231" x2="807.672" gradientUnits="userSpaceOnUse" gradientTransform="matrix(1 0 0 1 1.70894 -2.90552)">
<stop stop-color="#43a047" offset="0"/>
<stop stop-opacity="0" stop-color="#43a047" offset="1"/>
</linearGradient>
</defs>
<g id="g10" vectornator:layerName="g10">
<path d="M334.324+23.1147C334.325+23.3728+361.877+25.5148+385.17+25.7529C410.591+26.0128+436.688+24.341+444.679+24.1845L528.797+23.4209L532.832+27.5036C535.452+30.1555+534.614+33.5273+533.82+35.6809L532.651+38.855L500.296+37.1126C490.222+37.1404+472.561+36.252+450.944+36.6057C433.825+36.8857+413.701+38.4583+396.583+38.2728C347.204+37.7378+315.952+35.2836+252.731+35.5423C222.725+35.6651+182.974+38.179+135.39+38.4928C50.0104+39.0558+19.0322+38.4885+6.83898+36.139C-2.02728+34.4306+3.15872+32.618+14.0733+33.6105C19.5835+34.1116+21.6005+33.9638+19.8231+33.1891C18.3173+32.5328+13.8907+31.9614+9.98634+31.9193C6.08196+31.8773+2.53113+31.2837+2.09561+30.6003C1.3645+29.4531+25.8015+29.4385+82.6953+28.4479C94.896+28.2354+107.691+27.1065+123.054+26.8855C154.267+26.4366+194.61+25.1357+212.707+23.9947C246.519+21.8628+302.872+21.4551+334.324+23.1147Z" opacity="1" fill="url(#LinearGradient)"/>
</g>
</svg>
